<svg width="406" height="306" viewBox="0 0 406 306" fill="none" xmlns="http://www.w3.org/2000/svg">
<path opacity="0.45" d="M210.663 272.232C302.978 272.232 377.813 267.061 377.813 260.681C377.813 254.302 302.978 249.131 210.663 249.131C118.349 249.131 43.5131 254.302 43.5131 260.681C43.5131 267.061 118.349 272.232 210.663 272.232Z" fill="#282A2F"/>
<path d="M113.558 183.369L104.545 212.114C103.331 215.99 101.33 219.574 98.6664 222.641C96.0029 225.708 92.7345 228.192 89.0662 229.937L75.8712 236.22L76.399 240.117L96.1509 235.854C100.784 234.483 105.081 232.16 108.766 229.036C112.452 225.911 115.446 222.053 117.557 217.706L131.503 188.992L113.558 183.369Z" fill="#F4A28C"/>
<path opacity="0.19" d="M304.723 249.09C304.723 249.09 295.659 246.613 293.69 238.179C293.69 238.179 307.728 235.347 308.134 249.841L304.723 249.09Z" fill="#68E1FD"/>
<path opacity="0.51" d="M305.84 248.197C305.84 248.197 299.506 238.189 305.078 228.831C305.078 228.831 315.756 235.611 311.006 248.217L305.84 248.197Z" fill="#68E1FD"/>
<path d="M300.897 247.963L302.734 260.529L314.305 260.58L316.01 248.024L300.897 247.963Z" fill="#2386BD"/>
<path d="M285.215 95.1653H185.674V260.742H285.215V95.1653Z" fill="#2386BD"/>
<path d="M276.648 30.3217L178.427 46.4765L184.637 84.2347L282.858 68.0799L276.648 30.3217Z" fill="#2386BD"/>
<path d="M255.731 23.3678L197.108 32.8422L198.877 43.785L257.5 34.3106L255.731 23.3678Z" fill="#68E1FD"/>
<path opacity="0.07" d="M267.392 144.484H203.315C198.107 144.484 193.885 148.706 193.885 153.913V161.536C193.885 166.744 198.107 170.965 203.315 170.965H267.392C272.599 170.965 276.821 166.744 276.821 161.536V153.913C276.821 148.706 272.599 144.484 267.392 144.484Z" fill="white"/>
<path d="M261.697 164.845C265.61 164.845 268.782 161.673 268.782 157.76C268.782 153.848 265.61 150.676 261.697 150.676C257.785 150.676 254.613 153.848 254.613 157.76C254.613 161.673 257.785 164.845 261.697 164.845Z" fill="#68E1FD"/>
<path d="M244.128 154.391H202.381V161.12H244.128V154.391Z" fill="white"/>
<path opacity="0.07" d="M267.392 105.914H203.315C198.107 105.914 193.885 110.136 193.885 115.344V122.966C193.885 128.174 198.107 132.396 203.315 132.396H267.392C272.599 132.396 276.821 128.174 276.821 122.966V115.344C276.821 110.136 272.599 105.914 267.392 105.914Z" fill="white"/>
<path d="M261.697 126.275C265.61 126.275 268.782 123.103 268.782 119.19C268.782 115.278 265.61 112.106 261.697 112.106C257.785 112.106 254.613 115.278 254.613 119.19C254.613 123.103 257.785 126.275 261.697 126.275Z" fill="#68E1FD"/>
<path d="M244.128 115.821H202.381V122.55H244.128V115.821Z" fill="white"/>
<path opacity="0.07" d="M260.766 39.778L197.329 50.0303C192.174 50.8635 188.67 55.7184 189.503 60.874L190.723 68.4205C191.556 73.5761 196.411 77.08 201.566 76.2468L265.003 65.9945C270.158 65.1613 273.662 60.3064 272.829 55.1507L271.609 47.6043C270.776 42.4487 265.921 38.9447 260.766 39.778Z" fill="white"/>
<path d="M256.551 60.1478C260.464 60.1478 263.636 56.9759 263.636 53.0631C263.636 49.1503 260.464 45.9784 256.551 45.9784C252.639 45.9784 249.467 49.1503 249.467 53.0631C249.467 56.9759 252.639 60.1478 256.551 60.1478Z" fill="#68E1FD"/>
<path d="M238.663 52.5822L197.469 59.3574L198.562 65.9977L239.755 59.2225L238.663 52.5822Z" fill="white"/>
<path opacity="0.07" d="M267.392 184.729H203.315C198.107 184.729 193.885 188.951 193.885 194.158V201.781C193.885 206.989 198.107 211.21 203.315 211.21H267.392C272.599 211.21 276.821 206.989 276.821 201.781V194.158C276.821 188.951 272.599 184.729 267.392 184.729Z" fill="white"/>
<path d="M261.697 205.09C265.61 205.09 268.782 201.918 268.782 198.005C268.782 194.092 265.61 190.92 261.697 190.92C257.785 190.92 254.613 194.092 254.613 198.005C254.613 201.918 257.785 205.09 261.697 205.09Z" fill="#68E1FD"/>
<path d="M244.128 194.635H202.381V201.365H244.128V194.635Z" fill="white"/>
<path opacity="0.07" d="M267.392 224.974H203.315C198.107 224.974 193.885 229.195 193.885 234.403V242.026C193.885 247.233 198.107 251.455 203.315 251.455H267.392C272.599 251.455 276.821 247.233 276.821 242.026V234.403C276.821 229.195 272.599 224.974 267.392 224.974Z" fill="white"/>
<path d="M261.697 245.335C265.61 245.335 268.782 242.163 268.782 238.25C268.782 234.337 265.61 231.165 261.697 231.165C257.785 231.165 254.613 234.337 254.613 238.25C254.613 242.163 257.785 245.335 261.697 245.335Z" fill="#68E1FD"/>
<path d="M244.128 234.88H202.381V241.61H244.128V234.88Z" fill="white"/>
<path d="M143.338 191.479L147.561 253.038L143.633 254.398L128.002 196.807L143.338 191.479Z" fill="#F4A28C"/>
<path d="M148.363 254.094C148.363 254.094 149.215 257.738 151.966 258.875C154.716 260.011 153.326 263.95 149.185 261.564C147.897 260.815 146.675 259.96 145.531 259.007C144.455 258.165 143.178 257.619 141.826 257.423C141.574 257.378 141.341 257.256 141.16 257.075C140.978 256.893 140.857 256.661 140.811 256.408C140.253 254.378 144.82 252.49 144.82 252.49L148.363 254.094Z" fill="#68E1FD"/>
<path d="M76.3889 240.117C76.3889 240.117 73.6078 242.249 73.689 245.03C73.7702 247.811 69.8523 248.146 70.3294 243.69C70.4727 242.318 70.7307 240.96 71.1008 239.63C71.4123 238.391 71.3878 237.091 71.0297 235.865C70.9798 235.625 71.0034 235.375 71.0976 235.149C71.1918 234.922 71.3521 234.73 71.5575 234.596C73.0699 233.358 76.4498 236.524 76.4498 236.524L76.3889 240.117Z" fill="#68E1FD"/>
<path d="M119.78 102.25L121.242 108.167L116.441 110.705L115.598 100.575L119.78 102.25Z" fill="#F4A28C"/>
<path d="M114.472 94.871C114.755 94.341 115.166 93.8901 115.667 93.559C116.169 93.2279 116.745 93.027 117.343 92.9746C117.942 92.9222 118.544 93.0199 119.095 93.2589C119.647 93.4978 120.13 93.8705 120.501 94.3432C122.277 96.5762 124.358 100.068 121.516 101.651C117.243 104.077 113.924 98.6062 113.924 98.6062C113.741 97.3343 113.931 96.0367 114.472 94.871Z" fill="#F4A28C"/>
<path d="M65.3911 132.254L86.8107 159.7L106.198 144.569L84.7789 117.123L65.3911 132.254Z" fill="#68B1C1"/>
<path d="M94.7604 120.814C94.7604 120.814 74.095 153.132 78.2261 157.892C91.3602 172.996 120.521 138.973 120.521 138.973L94.7604 120.814Z" fill="#F4A28C"/>
<path d="M141.511 115.993C135.581 111.662 128.458 109.267 121.115 109.134C113.773 109.002 106.568 111.138 100.485 115.252C95.075 118.937 90.9034 124.387 92.8116 132.406C97.2877 151.082 111.599 163.394 112.097 179.826L145.977 177.553V156.4C145.969 154.4 146.374 152.419 147.169 150.583C147.964 148.747 149.131 147.095 150.596 145.733C153.549 143.012 156.483 138.577 154.473 132.477C152.646 127.067 148.028 120.774 141.511 115.993Z" fill="#68E1FD"/>
<path d="M117.161 98.6468C117.161 98.6468 116.146 97.6927 115.619 98.8904C115.091 100.088 116.837 100.829 117.435 100.25C118.034 99.6719 117.161 98.6468 117.161 98.6468Z" fill="#F4A28C"/>
<path opacity="0.08" d="M124.743 124.793C124.743 124.793 117.425 138.79 125.921 152.432C134.416 166.073 118.308 179.41 118.308 179.41L145.937 177.553V165.495C145.937 165.495 144.231 150.27 149.499 146.808C149.499 146.808 158.513 140.312 153.661 130.477C148.809 120.642 124.743 124.793 124.743 124.793Z" fill="black"/>
<path d="M110.635 116.46C111.285 113.933 114.299 109.355 110.046 101.042C109.153 99.2862 108.443 95.1754 110.138 92.3334C114.198 85.5228 120.673 87.8471 119.902 91.6635C119.131 95.4799 118.593 97.2968 118.593 97.2968C118.593 97.2968 130.894 106.117 129.098 112.623C127.504 118.358 107.894 126.955 110.635 116.46Z" fill="#2386BD"/>
<path d="M110.564 171.179H145.937L151.57 220.122L99.0945 217.757L110.564 171.179Z" fill="#2386BD"/>
<path d="M126.144 134.73C125.308 133.714 124.683 132.542 124.303 131.282C123.924 130.022 123.799 128.699 123.935 127.391C124.071 126.082 124.465 124.813 125.095 123.658C125.726 122.503 126.579 121.485 127.606 120.662C129.652 119.065 131.816 117.626 134.081 116.359C147.571 108.634 169.992 91.5621 179.432 68.014C179.432 68.014 181.644 59.4069 188.211 59.7114C194.778 60.0159 192.515 68.1765 185.978 68.0953C185.978 68.0953 180.629 119.19 141.379 138.201C138.819 139.41 135.927 139.725 133.167 139.096C130.407 138.467 127.937 136.929 126.154 134.73H126.144Z" fill="#F4A28C"/>
<path d="M101.5 49.4599V68.1054H113.548L116.187 75.5251L119.303 68.1054H131.351V49.4599H101.5Z" fill="#282A2F"/>
<path opacity="0.12" d="M114.918 62.9492C114.784 62.9424 114.652 62.9062 114.533 62.843C114.413 62.7799 114.309 62.6914 114.228 62.5838L111.071 58.5238C110.932 58.3278 110.873 58.0853 110.908 57.8471C110.943 57.6089 111.068 57.3933 111.258 57.2453C111.448 57.0973 111.687 57.0284 111.927 57.0529C112.166 57.0774 112.387 57.1935 112.543 57.3769L115.02 60.564L121.11 53.9665C121.193 53.8746 121.293 53.8001 121.405 53.7473C121.516 53.6945 121.638 53.6644 121.761 53.6589C121.885 53.6533 122.008 53.6723 122.124 53.7148C122.241 53.7573 122.347 53.8225 122.438 53.9065C122.529 53.9905 122.602 54.0918 122.653 54.2043C122.704 54.3168 122.733 54.4384 122.737 54.562C122.741 54.6856 122.72 54.8088 122.676 54.9244C122.632 55.0399 122.565 55.1456 122.48 55.2352L115.608 62.665C115.519 62.7568 115.411 62.8294 115.293 62.8782C115.174 62.9271 115.047 62.9512 114.918 62.9492Z" fill="black"/>
</svg>
