<svg width="638" height="653" viewBox="0 0 638 653" fill="none" xmlns="http://www.w3.org/2000/svg">
<g clip-path="url(#clip0_2935_423)">
<path d="M637.67 651.268C637.671 651.425 637.64 651.58 637.58 651.724C637.521 651.869 637.433 652 637.323 652.111C637.212 652.221 637.081 652.309 636.936 652.369C636.791 652.428 636.636 652.459 636.48 652.458H1.19C0.874395 652.458 0.57171 652.333 0.348541 652.11C0.125373 651.886 0 651.584 0 651.268C0 650.953 0.125373 650.65 0.348541 650.427C0.57171 650.204 0.874395 650.078 1.19 650.078H636.48C636.636 650.078 636.791 650.108 636.936 650.168C637.08 650.227 637.212 650.315 637.323 650.426C637.433 650.536 637.521 650.668 637.58 650.812C637.64 650.957 637.671 651.112 637.67 651.268Z" fill="#CCCCCC"/>
<path d="M517.096 29.4767C516.312 25.1115 514.371 21.0365 511.476 17.6767C507.359 12.9904 502.358 9.16097 496.761 6.40713C491.163 3.65329 485.078 2.02895 478.853 1.62688C472.628 1.2248 466.384 2.05285 460.479 4.06376C454.574 6.07466 449.122 9.22903 444.436 13.3468L444.036 13.7068C438.442 8.28478 431.624 4.29124 424.159 2.06462C416.694 -0.162002 408.802 -0.556078 401.152 0.915802C393.502 2.38768 386.32 5.68213 380.214 10.5199C374.108 15.3577 369.258 21.5962 366.076 28.7068C363.152 35.2136 361.811 42.3208 362.164 49.4458C362.517 56.5708 364.553 63.5107 368.106 69.6968C369.7 72.486 371.573 75.1061 373.696 77.5168C375.886 80.0168 435.006 145.787 435.596 146.447C435.667 146.529 435.754 146.595 435.853 146.639C435.951 146.684 436.058 146.707 436.166 146.707C436.186 146.707 436.216 146.697 436.246 146.697C436.288 146.696 436.329 146.686 436.366 146.667C436.561 146.619 436.73 146.497 436.836 146.327L437.146 145.817L437.516 145.187L442.986 136.047C458.156 110.697 478.606 86.7768 503.776 64.9568C505.397 63.5495 506.899 62.011 508.266 60.3568C513.652 53.9182 516.902 45.9643 517.566 37.5968C517.756 34.8811 517.598 32.1523 517.096 29.4767Z" fill="#9563FF"/>
<path d="M245.859 543.634L256.993 507.374C243.597 492.63 226.804 481.379 208.073 474.598C226.373 504.916 208.64 544.468 216.03 579.102C218.417 589.886 223.201 599.995 230.026 608.68C236.852 617.364 245.544 624.401 255.459 629.269L272.355 650.204C281.213 634.729 286.61 617.517 288.175 599.755C289.741 581.993 287.436 564.102 281.422 547.316C277.954 537.933 273.319 529.023 267.625 520.798C257.585 532.602 245.859 543.634 245.859 543.634Z" fill="#F2F2F2"/>
<path d="M184.638 548.268L178.432 510.847C159.866 503.625 139.818 501.044 120.028 503.329C149.93 522.304 151.697 565.613 173.757 593.316C180.704 601.904 189.494 608.818 199.476 613.547C209.458 618.276 220.376 620.698 231.422 620.633L255.881 631.835C256.907 614.034 254.062 596.222 247.541 579.626C241.021 563.03 230.979 548.045 218.11 535.703C210.821 528.851 202.699 522.944 193.935 518.121C190.212 533.164 184.638 548.268 184.638 548.268Z" fill="#F2F2F2"/>
<path d="M306.87 302.877L303.796 310.027L308.82 335.423L360.075 328.296L359.666 297.33L358.637 290.547L306.87 302.877Z" fill="#FFB6B6"/>
<path d="M280.389 632.005H291.697L297.078 588.389H280.389V632.005Z" fill="#FFB6B6"/>
<path d="M311.938 642.786L294.768 630.923V623.178L292.772 623.302L280.389 624.04L276.703 624.255L274.423 651.597H282.532L283.972 643.942L287.681 651.597H309.194C310.224 651.597 311.227 651.267 312.057 650.656C312.887 650.045 313.5 649.184 313.806 648.201C314.113 647.217 314.097 646.161 313.761 645.187C313.425 644.213 312.786 643.371 311.938 642.786Z" fill="#3F3D56"/>
<path d="M343.907 632.005H355.215L361.867 567.792L340.619 566.521L343.907 632.005Z" fill="#FFB6B6"/>
<path d="M375.457 642.786L358.287 630.923V623.178L356.11 623.302L343.511 624.062L340.222 624.255L337.942 651.597H346.051L347.491 643.942L351.2 651.597H372.713C373.743 651.597 374.746 651.267 375.576 650.656C376.406 650.045 377.019 649.184 377.325 648.201C377.631 647.217 377.616 646.161 377.28 645.187C376.944 644.213 376.305 643.371 375.457 642.786Z" fill="#3F3D56"/>
<path d="M275.589 594.391H275.633L277.808 523.473C276.4 520.758 275.686 517.738 275.729 514.68C275.771 511.623 276.569 508.623 278.051 505.949L278.362 505.385L277.555 501.643C276.518 496.835 276.994 491.824 278.917 487.297L280.946 421.143C273.698 374.169 308.24 343.535 308.24 343.535L305.066 318.914L360.936 320.184L359.986 343.535L371.095 381.703C376.941 438.662 377.289 494.464 371.308 548.934C371.296 549.09 371.319 549.248 371.376 549.394C371.983 551.239 372.197 553.191 372.003 555.124C371.81 557.056 371.214 558.927 370.253 560.616C370.004 561.046 369.833 561.518 369.747 562.008C368.515 571.557 368.355 559.478 366.722 568.943L367.04 569.103C368.184 569.498 368.674 571.083 368.136 572.643C367.597 574.203 366.234 575.148 365.09 574.753L335.223 575.072C334.079 574.677 333.588 573.093 334.126 571.532C334.665 569.972 336.029 569.028 337.173 569.422L339.031 570.362L335.922 560.192L334.833 559.174C334.31 558.687 333.905 558.088 333.648 557.422C333.39 556.755 333.286 556.04 333.344 555.328C333.402 554.616 333.62 553.926 333.982 553.311C334.344 552.695 334.841 552.169 335.435 551.773L336.338 522.245L336.778 509.745L335.872 495.564L331.683 431.779L315.828 510.217L299.633 595.181C300.01 595.522 300.294 595.954 300.457 596.436C300.62 596.918 300.656 597.434 300.561 597.934C300.412 598.632 300.025 599.257 299.466 599.701C298.906 600.146 298.21 600.381 297.496 600.368H275.51C275.049 600.368 274.594 600.261 274.182 600.056C273.769 599.851 273.409 599.554 273.13 599.187C272.85 598.82 272.66 598.393 272.573 597.941C272.485 597.488 272.504 597.022 272.626 596.577C272.812 595.938 273.202 595.378 273.738 594.983C274.273 594.588 274.924 594.38 275.589 594.391Z" fill="#3F3D56"/>
<path d="M295.14 182.202C295.139 186.73 296.249 191.189 298.372 195.188C300.496 199.187 303.57 202.603 307.322 205.137C311.074 207.671 315.392 209.245 319.894 209.721C324.397 210.197 328.948 209.56 333.147 207.867C337.347 206.174 341.066 203.475 343.979 200.009C346.892 196.542 348.91 192.414 349.854 187.986C350.799 183.557 350.643 178.965 349.399 174.611C348.154 170.258 345.861 166.276 342.718 163.016L342.586 162.884C342.364 162.651 342.143 162.419 341.911 162.197L341.906 162.197L341.903 162.194L341.9 162.191L341.9 162.186C341.582 161.955 341.29 161.692 341.025 161.401C337.291 156.183 333.057 151.807 322.802 154.541C308.037 158.476 295.14 166.922 295.14 182.202Z" fill="#3F3D56"/>
<path d="M447.091 170.361C447.154 171.841 446.892 173.317 446.322 174.684C445.753 176.052 444.891 177.278 443.796 178.276C442.702 179.274 441.402 180.02 439.988 180.462C438.574 180.903 437.08 181.029 435.612 180.831L364.275 239.378L353.378 220.226L426.927 168.699C427.424 166.255 428.799 164.078 430.794 162.58C432.788 161.083 435.262 160.369 437.748 160.574C440.233 160.778 442.557 161.888 444.279 163.692C446.001 165.496 447.002 167.869 447.091 170.361Z" fill="#FFB6B6"/>
<path d="M334.152 256.643C334.152 256.643 336.476 261.465 345.515 254.616C352.751 249.132 387.296 225.474 394.969 215.473C396.579 216.201 398.386 216.372 400.104 215.96C401.822 215.548 403.354 214.576 404.459 213.197L385.585 195.025C379.663 195.425 379.602 199.388 380.109 201.664L364.941 207.691L325.435 230.389L332.411 253.187L334.152 256.643Z" fill="#E6E6E6"/>
<path d="M329.617 211.797C342.428 211.797 352.812 201.412 352.812 188.602C352.812 175.791 342.428 165.406 329.617 165.406C316.807 165.406 306.422 175.791 306.422 188.602C306.422 201.412 316.807 211.797 329.617 211.797Z" fill="#FFB7B7"/>
<path d="M361.259 303.656L361.497 290.716C362.438 289.424 370.331 278.14 368.562 266.867C367.734 261.56 364.853 257.103 360.022 253.633L356.904 246.375L352.288 235.646L338.781 227.606L336.91 223.795L335.368 220.631L316.735 218.771L312.142 224.952L312.052 224.964C307.831 225.923 303.867 227.779 300.427 230.407C296.652 233.272 293.591 236.972 291.486 241.218C289.38 245.464 288.288 250.141 288.293 254.88L288.406 269.918L288.429 272.072L288.44 274.159L300.065 305.448L300.507 306.661L305.066 318.92L304.283 320.213C303.441 321.62 303.13 323.282 303.406 324.898C303.683 326.515 304.529 327.978 305.792 329.025L306.336 336.691L307.323 336.419L312.936 334.854L355.395 323.003C356.994 322.557 358.406 321.606 359.421 320.293C359.458 320.245 359.492 320.196 359.523 320.145C359.691 319.937 359.84 319.713 359.966 319.476C360.93 317.038 361.032 316.38 361.043 315.7C362.453 314.094 363.267 312.052 363.349 309.917C363.432 307.782 362.778 305.683 361.497 303.974L361.259 303.656Z" fill="#E6E6E6"/>
<path d="M305.342 194.684C305.552 194.65 305.762 194.606 305.973 194.573C309.591 193.931 313.209 193.301 316.816 192.648L317.148 184.471L321.518 191.796C331.488 195.104 340.815 193.234 349.59 189.107C352.484 187.733 355.292 186.185 357.999 184.471C358.89 170.642 353.299 161.789 342.895 162.718C342.515 162.752 342.243 162.364 341.911 162.198L341.906 162.197L341.903 162.195L341.9 162.191L341.9 162.187C341.335 161.921 340.76 161.667 340.185 161.434C335.68 159.674 330.769 159.228 326.021 160.149C321.273 161.069 316.884 163.318 313.364 166.635C306.283 173.395 303.096 184.559 305.342 194.684Z" fill="#3F3D56"/>
<path d="M320.455 155.208C320.223 156.007 319.764 156.721 319.134 157.265C318.504 157.808 317.73 158.157 316.905 158.27C313.787 162.125 310.214 166.208 305.327 166.979C303.93 167.276 302.472 167.024 301.255 166.276C301.107 166.183 300.97 166.072 300.847 165.947C299.69 164.847 299.6 162.636 300.972 161.808C294.825 164.246 291.23 170.88 290.323 177.424C289.416 183.967 290.675 190.579 291.502 197.134C292.33 203.689 292.693 210.572 290.119 216.662C287.08 223.841 280.094 229.001 272.473 230.645C271.792 230.793 271.112 230.917 270.42 230.997C269.961 227.884 268.805 224.915 267.041 222.31C267.507 225.325 267.231 228.408 266.236 231.292C260.505 231.212 254.877 229.758 249.826 227.05C242.919 223.41 237.17 217.853 232.463 211.627C240.572 217.377 251.776 219.532 260.599 214.984C268.492 210.901 273.153 202.328 275.195 193.686C277.236 185.033 268.656 174.432 269.586 165.598C270.527 156.763 281.182 149.265 287.011 142.563C290.731 138.287 296.22 135.123 301.879 135.656C303.79 135.838 305.64 136.43 307.301 137.392C308.963 138.353 310.398 139.661 311.509 141.227C312.62 142.793 313.38 144.58 313.738 146.466C314.095 148.352 314.043 150.293 313.583 152.157C315.193 149.877 319.355 150.376 320.387 152.973C320.664 153.689 320.688 154.477 320.455 155.208Z" fill="#3F3D56"/>
<path d="M305.973 194.573C305.973 194.573 312.844 168.925 342.298 163.005C342.331 162.994 342.442 162.95 342.586 162.884C342.674 162.828 342.785 162.773 342.895 162.718C342.563 162.53 342.243 162.364 341.911 162.198L341.906 162.197L341.903 162.194L341.9 162.191L341.9 162.187C341.612 161.921 341.324 161.656 341.025 161.401L340.185 161.434C340.185 161.434 310.631 156.754 305.973 194.573Z" fill="#FD6584"/>
<path d="M379.893 316.796C379.63 316.128 379.188 315.546 378.616 315.113C378.044 314.68 377.364 314.412 376.65 314.34C375.219 314.215 373.779 314.424 372.442 314.949C367.195 316.696 362.485 319.759 358.759 323.844L358.822 326.44C357.073 328.672 356.139 331.435 356.176 334.271C356.213 337.106 357.219 339.844 359.026 342.029C360.047 343.287 361.44 344.189 363.005 344.605C363.787 344.8 364.607 344.78 365.379 344.547C366.151 344.315 366.846 343.878 367.39 343.283C368.958 341.373 368.2 338.497 367.048 336.311C365.036 332.51 362.091 329.282 358.491 326.929C364.503 326.776 370.409 325.308 375.793 322.628C376.986 322.106 378.063 321.351 378.959 320.407C379.402 319.93 379.72 319.35 379.883 318.719C380.046 318.089 380.049 317.428 379.893 316.796Z" fill="#3F3D56"/>
<path d="M487.702 469.549L476.477 469.994C473.671 475.183 472.173 480.979 472.115 486.878C478.793 478.791 491.584 479.868 500.538 474.407C503.318 472.683 505.673 470.355 507.431 467.596C509.188 464.837 510.303 461.718 510.691 458.47L514.884 451.696C509.691 450.738 504.352 450.917 499.235 452.222C494.118 453.526 489.345 455.924 485.244 459.251C482.962 461.14 480.927 463.309 479.186 465.706C483.469 467.355 487.702 469.549 487.702 469.549Z" fill="#F2F2F2"/>
<path d="M431.702 591.549L420.477 591.994C417.671 597.183 416.173 602.979 416.115 608.878C422.793 600.791 435.584 601.868 444.538 596.407C447.318 594.683 449.673 592.355 451.431 589.596C453.188 586.837 454.303 583.718 454.691 580.47L458.884 573.696C453.691 572.738 448.352 572.917 443.235 574.222C438.118 575.526 433.345 577.924 429.244 581.251C426.962 583.14 424.927 585.309 423.186 587.706C427.469 589.355 431.702 591.549 431.702 591.549Z" fill="#F2F2F2"/>
<path d="M167.164 418.813L157.65 412.84C152.403 415.538 147.894 419.475 144.514 424.311C154.593 421.408 164.54 429.521 175.013 430.071C178.281 430.218 181.54 429.627 184.549 428.343C187.557 427.059 190.238 425.114 192.393 422.653L199.679 419.431C195.935 415.707 191.427 412.84 186.468 411.027C181.508 409.213 176.215 408.496 170.952 408.926C168.001 409.196 165.097 409.836 162.307 410.832C164.91 414.611 167.164 418.813 167.164 418.813Z" fill="#F2F2F2"/>
<path d="M447.499 158.309C447.275 156.806 448.906 155.735 449.516 154.343C449.908 153.101 449.908 151.768 449.515 150.526C449.163 148.838 448.758 147.049 447.536 145.833C446.288 144.784 444.75 144.139 443.126 143.984C439.18 143.295 435.151 143.224 431.183 143.773L434.193 143.956C432.298 143.835 430.396 144.056 428.579 144.607C427.672 144.894 426.853 145.403 426.195 146.088C425.536 146.774 425.061 147.613 424.812 148.53C424.44 150.388 425.71 152.564 427.598 152.723C426.655 152.531 425.675 152.72 424.871 153.249C424.067 153.778 423.505 154.603 423.307 155.545C423.11 156.486 423.294 157.468 423.818 158.275C424.342 159.082 425.164 159.649 426.105 159.851C425.67 161.025 424.378 161.587 423.272 162.173C422.165 162.759 421.001 163.763 421.188 165.001C421.435 166.638 423.622 166.974 425.276 166.902L443.278 166.116C444.829 166.172 446.369 165.852 447.769 165.184C449.104 164.406 450.034 162.7 449.418 161.283C448.942 160.189 447.675 159.489 447.499 158.309Z" fill="#3F3D56"/>
<path d="M238.708 318.649C236.234 329.519 235.058 341.842 241.657 351.569C244.462 355.742 248.578 358.86 253.355 360.431C258.189 361.864 263.287 362.177 268.261 361.346C279.517 359.787 289.52 353.924 300.589 351.648C305.474 350.644 310.658 350.312 315.361 352.245C318.884 353.693 322.596 356.605 322.612 360.759C322.63 365.025 318.925 367.857 315.24 369.168C310.324 370.918 305.214 370.241 300.114 370.02C294.622 369.783 289.021 370.279 284.458 373.643C280.534 376.706 277.524 380.786 275.757 385.44C273.464 391.006 272.533 396.991 271.066 402.798C269.755 408.019 267.901 413.089 265.534 417.924C260.889 427.4 254.377 435.84 246.39 442.738C242.451 446.128 237.664 449.582 232.284 449.893C228.135 450.133 223.091 448.389 221.491 444.186C220.897 442.371 220.955 440.406 221.656 438.63C222.356 436.853 223.655 435.377 225.328 434.457C228.884 432.662 232.757 435.222 233.905 438.736C234.207 439.546 234.312 440.415 234.213 441.274C234.114 442.132 233.813 442.955 233.335 443.675C232.257 445.283 234.854 446.786 235.925 445.189C238.412 441.481 237.112 436.494 234.067 433.523C232.581 432.008 230.594 431.086 228.478 430.928C226.363 430.771 224.261 431.388 222.568 432.666C220.808 434.006 219.477 435.831 218.739 437.916C218.002 440.002 217.889 442.257 218.414 444.406C219.694 449.022 224.23 451.959 228.76 452.686C234.354 453.585 239.738 451.386 244.254 448.21C248.784 444.939 252.904 441.134 256.523 436.877C263.88 428.415 269.411 418.526 272.769 407.828C276.071 397.247 276.311 383.268 286.123 376.122C291.172 372.445 297.358 372.853 303.278 373.191C308.503 373.489 313.601 373.435 318.395 371.069C322.353 369.115 325.547 365.51 325.613 360.916C325.68 356.279 322.387 352.55 318.508 350.438C308.26 344.857 295.954 349.358 285.886 353.087C275.762 356.836 264.202 361.237 253.443 357.291C248.477 355.362 244.479 351.541 242.325 346.669C239.72 341.143 239.349 334.874 239.951 328.878C240.306 325.703 240.857 322.553 241.601 319.447C242.028 317.567 239.137 316.764 238.708 318.649Z" fill="#3F3D56"/>
<path d="M288.393 379.137C287.472 377.977 286.816 376.63 286.472 375.189C286.128 373.748 286.104 372.249 286.401 370.798C286.699 369.347 287.311 367.979 288.195 366.79C289.079 365.601 290.212 364.621 291.516 363.918L276.267 318.773L288.719 270.932L308.797 280.009L296.407 316.094L305.677 368.619C306.713 370.888 306.881 373.457 306.15 375.842C305.418 378.226 303.837 380.259 301.707 381.555C299.576 382.852 297.044 383.322 294.59 382.876C292.137 382.43 289.932 381.1 288.393 379.137Z" fill="#FFB6B6"/>
<path d="M306.772 231.514C306.772 231.514 302.056 228.982 298.776 239.838C296.151 248.529 278.282 295.718 277.96 308.32C276.23 308.679 274.668 309.603 273.522 310.947C272.375 312.291 271.708 313.978 271.625 315.743L297.577 319.334C302.131 315.527 299.849 312.286 298.1 310.745L306.939 295.772L325.414 255.352L310.213 233.284L306.772 231.514Z" fill="#E6E6E6"/>
<path d="M257.096 288.158C254.129 298.062 249.657 307.452 243.836 315.998C242.396 318.098 240.883 320.144 239.296 322.138C238.063 319.896 236.569 317.808 234.846 315.918C228.796 309.268 220.686 304.918 212.816 300.558C204.946 296.198 196.956 291.518 191.396 284.448C188.901 281.265 187.115 277.586 186.156 273.658C184.896 268.328 185.376 262.768 188.486 258.318C193.006 251.848 202.016 249.568 209.676 251.438C217.346 253.308 223.766 258.638 228.746 264.758C227.116 257.238 235.046 249.978 242.716 250.638C250.386 251.308 256.536 258.008 258.576 265.428C260.626 272.838 259.296 280.778 257.096 288.158Z" fill="#9563FF"/>
<path d="M405.362 13.0334C401.298 13.697 397.411 15.1794 393.937 17.3907C390.463 19.6019 387.475 22.496 385.154 25.8971C382.801 29.4087 381.233 33.3866 380.558 37.5594C379.882 41.7321 380.115 46.0014 381.24 50.0759C382.504 54.8006 384.904 59.1444 388.232 62.7282C389.55 64.1446 391.668 62.0195 390.353 60.6069C387.733 57.7313 385.752 54.3324 384.541 50.6347C383.331 46.937 382.919 43.0246 383.333 39.1559C383.778 35.4378 385.009 31.8571 386.945 28.6517C388.881 25.4464 391.477 22.6898 394.561 20.5654C398.017 18.1433 401.987 16.5553 406.159 15.9262C408.062 15.6398 407.253 12.7486 405.362 13.0334Z" fill="#3F3D56"/>
<g opacity="0.2">
<path d="M508.266 60.3584C506.898 62.0126 505.397 63.5511 503.776 64.9584C478.606 86.7784 458.156 110.698 442.986 136.048L437.516 145.188L437.146 145.818C435.857 144.848 434.733 143.676 433.816 142.348C430.316 137.258 430.296 130.568 431.156 124.448C433.757 106.098 443.093 89.3724 457.346 77.526C471.599 65.6795 489.75 59.56 508.266 60.3584Z" fill="black"/>
</g>
<g opacity="0.2">
<path d="M243.836 315.998C242.396 318.098 240.883 320.145 239.296 322.138C238.063 319.897 236.569 317.809 234.846 315.918C228.796 309.268 220.686 304.918 212.816 300.558C204.946 296.198 196.956 291.518 191.396 284.448C188.901 281.266 187.115 277.587 186.156 273.658C203.848 276.111 220.104 284.735 232.056 298.008C236.841 303.397 240.81 309.458 243.836 315.998Z" fill="black"/>
</g>
<path d="M435.586 145.598C437.795 145.598 439.586 143.807 439.586 141.598C439.586 139.389 437.795 137.598 435.586 137.598C433.377 137.598 431.586 139.389 431.586 141.598C431.586 143.807 433.377 145.598 435.586 145.598Z" fill="#3F3D56"/>
</g>
<defs>
<clipPath id="clip0_2935_423">
<rect width="637.67" height="652.457" fill="white"/>
</clipPath>
</defs>
</svg>
