<svg width="565" height="513" viewBox="0 0 565 513" fill="none" xmlns="http://www.w3.org/2000/svg">
<g clip-path="url(#clip0_2935_336)">
<path d="M390.427 511.006H230.114C206.07 511.006 186.508 491.444 186.508 467.399V43.6069C186.508 19.5621 206.07 0 230.114 0H390.427C414.471 0 434.033 19.5621 434.033 43.6069C437.017 213.789 442.106 404.365 434.033 467.399C434.033 491.444 414.471 511.006 390.427 511.006Z" fill="#3F3D56"/>
<path d="M436.269 155.885C435.251 155.885 434.424 156.712 434.424 157.73V216.763C434.424 217.78 435.251 218.607 436.269 218.607C437.286 218.607 438.114 217.78 438.114 216.763V157.73C438.114 156.712 437.286 155.885 436.269 155.885Z" fill="#3F3D56"/>
<path d="M429.883 43.6064V467.391C429.883 488.32 413.593 505.439 392.996 506.767H392.987C392.683 506.786 392.378 506.804 392.065 506.814C391.52 506.841 390.976 506.85 390.423 506.85C390.423 506.85 388.394 506.703 384.686 506.426C380.941 506.149 375.489 505.734 368.691 505.19C366.653 505.033 364.504 504.858 362.234 504.674C357.715 504.305 352.752 503.899 347.43 503.438C345.309 503.262 343.113 503.069 340.872 502.875C329.416 501.888 316.585 500.735 303.054 499.425C300.766 499.213 298.46 498.992 296.136 498.761C295.527 498.697 190.659 472.335 190.659 467.391V43.6064C190.659 21.8103 208.323 4.14648 230.119 4.14648H253.677C257.44 4.14648 260.465 7.07968 260.788 10.8338C260.816 11.0829 260.844 11.3319 260.89 11.581C261.572 15.3536 265.031 17.9824 268.868 17.9824H351.673C355.51 17.9824 358.969 15.3536 359.652 11.581C359.698 11.3319 359.726 11.0829 359.753 10.8338C360.076 7.07969 363.102 4.14648 366.865 4.14648H390.423C412.219 4.14648 429.883 21.8103 429.883 43.6064Z" fill="white"/>
<path d="M185.585 111.609C184.568 111.609 183.74 112.437 183.74 113.454V128.212C183.74 129.23 184.568 130.057 185.585 130.057C186.603 130.057 187.43 129.23 187.43 128.212V113.454C187.43 112.437 186.603 111.609 185.585 111.609Z" fill="#3F3D56"/>
<path d="M185.585 155.885C184.568 155.885 183.74 156.712 183.74 157.73V186.324C183.74 187.341 184.568 188.169 185.585 188.169C186.603 188.169 187.43 187.341 187.43 186.324V157.73C187.43 156.712 186.603 155.885 185.585 155.885Z" fill="#3F3D56"/>
<path d="M185.585 196.471C184.568 196.471 183.74 197.298 183.74 198.315V226.91C183.74 227.927 184.568 228.754 185.585 228.754C186.603 228.754 187.43 227.927 187.43 226.91V198.315C187.43 197.298 186.603 196.471 185.585 196.471Z" fill="#3F3D56"/>
<path d="M253.071 10.6074H217.718C217.547 10.6074 217.408 10.7463 217.408 10.9176V14.9092C217.408 15.0805 217.547 15.2194 217.718 15.2194H253.071C253.242 15.2194 253.381 15.0805 253.381 14.9092V10.9176C253.381 10.7463 253.242 10.6074 253.071 10.6074Z" fill="#E6E6E6"/>
<path d="M372.694 15.219C374.732 15.219 376.384 13.5671 376.384 11.5294C376.384 9.49172 374.732 7.83984 372.694 7.83984C370.657 7.83984 369.005 9.49172 369.005 11.5294C369.005 13.5671 370.657 15.219 372.694 15.219Z" fill="#E6E6E6"/>
<path d="M382.841 15.219C384.878 15.219 386.53 13.5671 386.53 11.5294C386.53 9.49172 384.878 7.83984 382.841 7.83984C380.803 7.83984 379.151 9.49172 379.151 11.5294C379.151 13.5671 380.803 15.219 382.841 15.219Z" fill="#E6E6E6"/>
<path d="M392.987 15.219C395.024 15.219 396.676 13.5671 396.676 11.5294C396.676 9.49172 395.024 7.83984 392.987 7.83984C390.949 7.83984 389.297 9.49172 389.297 11.5294C389.297 13.5671 390.949 15.219 392.987 15.219Z" fill="#E6E6E6"/>
<path d="M14.3143 511.106C14.3143 511.766 14.8444 512.296 15.5044 512.296H563.794C564.454 512.296 564.984 511.766 564.984 511.106C564.984 510.446 564.454 509.916 563.794 509.916H15.5044C14.8444 509.916 14.3143 510.446 14.3143 511.106Z" fill="#CCCCCC"/>
<path d="M189.133 503.29L177.89 503.289L172.541 459.92L189.136 459.921L189.133 503.29Z" fill="#FFB6B6"/>
<path d="M150.611 503.035C150.261 503.625 150.076 505.528 150.076 506.214C150.076 508.321 151.785 510.03 153.892 510.03H188.713C190.151 510.03 191.316 508.864 191.316 507.426V505.977C191.316 505.977 193.039 501.62 189.492 496.249C189.492 496.249 185.085 500.454 178.498 493.868L176.556 490.35L162.497 500.632L154.704 501.591C153 501.801 151.488 501.558 150.611 503.035Z" fill="#362E45"/>
<path d="M126.954 443.052L115.71 443.015L110.499 399.629L127.094 399.683L126.954 443.052Z" fill="#FFB6B6"/>
<path d="M88.4322 442.674C88.0803 443.262 87.8895 445.165 87.8873 445.85C87.8806 447.958 89.5837 449.672 91.6914 449.678L126.512 449.789C127.95 449.794 129.119 448.632 129.123 447.194L129.128 445.744C129.128 445.744 130.864 441.393 127.335 436.011C127.335 436.011 122.914 440.202 116.349 433.595L114.418 430.07L100.326 440.308L92.5303 441.242C90.8248 441.447 89.3139 441.199 88.4322 442.674Z" fill="#362E45"/>
<path d="M172.734 240L158.734 241C158.734 241 111.339 267.947 107.339 273.947C103.339 279.947 97.8389 288.447 102.839 297.447C107.839 306.447 104.033 415.42 104.033 415.42L127.926 410.015L143.234 296L175.234 291.5C175.234 291.5 186.234 315.232 182.234 334.866C178.234 354.5 176.234 366.5 176.234 366.5L171.234 482.5L190.734 482L208.234 374.5L238.234 289.5L199.234 243.5L172.734 240Z" fill="#362E45"/>
<path d="M241.734 117L212.734 120L209.734 130L181.734 145L190.734 208L183.734 219L186.734 230C186.734 230 178.734 231 179.734 237L161.734 240C161.734 240 185.609 244.874 190.671 268.937C195.734 293 237.734 296 237.734 296L270.734 193L273.734 132L250.734 126L241.734 117Z" fill="#E6E6E6"/>
<path d="M226.451 113.205C238.902 113.205 248.995 103.112 248.995 90.6612C248.995 78.2105 238.902 68.1172 226.451 68.1172C214 68.1172 203.907 78.2105 203.907 90.6612C203.907 103.112 214 113.205 226.451 113.205Z" fill="#FFB6B6"/>
<path d="M214.734 111C214.734 111 194.734 110 196.734 94C191.784 76.9617 196.166 65.899 211.734 62C211.734 62 215.734 61 216.734 61C229.887 61 236.734 65 236.734 65C236.734 65 235.734 61.0394 236.734 62.0197C237.734 63 238.734 65 238.734 65C238.734 65 248.734 70 248.734 80C248.734 90 248.734 86 248.734 86C248.734 86 246.734 86 244.734 80C242.734 74 229.786 78 229.786 78L230.734 80L227.734 79L224.734 82L222.734 81C222.734 81 214.734 81 215.734 81C216.734 81 216.038 87.7959 216.038 87.7959L208.734 96L216.734 111H214.734Z" fill="#362E45"/>
<path d="M108.18 230.354C102.487 233.461 99.4744 238.917 101.452 242.54C103.429 246.163 109.647 246.581 115.341 243.474C117.833 242.114 119.811 240.304 121.082 238.394L145.042 224.925L138.482 213.816L115.559 228.273C113.265 228.309 110.672 228.994 108.18 230.354Z" fill="#FFB6B6"/>
<path d="M188.978 145.466C188.978 145.466 179.586 141.89 176.35 146.194C173.114 150.499 151.737 202.729 151.737 202.729L120.373 219.109L129.193 234.468L169.581 221.022L196.227 172.289L188.978 145.466Z" fill="#E6E6E6"/>
<path d="M485.149 316.998V422.998C485.149 432.372 477.523 439.998 468.149 439.998H206.149C196.775 439.998 189.149 432.372 189.149 422.998V316.998C189.149 307.624 196.775 299.998 206.149 299.998H468.149C477.523 299.998 485.149 307.624 485.149 316.998Z" fill="white"/>
<path d="M485.149 316.998V422.998C485.149 432.372 477.523 439.998 468.149 439.998H206.149C196.775 439.998 189.149 432.372 189.149 422.998V316.998C189.149 307.624 196.775 299.998 206.149 299.998H468.149C477.523 299.998 485.149 307.624 485.149 316.998ZM468.149 437.998C476.434 437.998 483.149 431.282 483.149 422.998V369.557C483.149 332.245 452.902 301.998 415.59 301.998H206.149C197.865 301.998 191.149 308.714 191.149 316.998V422.998C191.149 431.282 197.865 437.998 206.149 437.998H468.149Z" fill="#3F3D56"/>
<path d="M306.76 364.039H272.539C271.676 364.039 270.974 364.741 270.974 365.603C270.974 366.466 271.676 367.168 272.539 367.168H306.76C307.622 367.168 308.324 366.466 308.324 365.603C308.324 364.741 307.622 364.039 306.76 364.039Z" fill="#9563FF"/>
<path d="M358.76 364.039H324.539C323.676 364.039 322.974 364.741 322.974 365.603C322.974 366.466 323.676 367.168 324.539 367.168H358.76C359.622 367.168 360.324 366.466 360.324 365.603C360.324 364.741 359.622 364.039 358.76 364.039Z" fill="#9563FF"/>
<path d="M306.76 381.145H272.539C271.676 381.145 270.974 381.846 270.974 382.709C270.974 383.572 271.676 384.274 272.539 384.274H306.76C307.622 384.274 308.324 383.572 308.324 382.709C308.324 381.846 307.622 381.145 306.76 381.145Z" fill="#9563FF"/>
<path d="M358.76 381.145H324.539C323.676 381.145 322.974 381.846 322.974 382.709C322.974 383.572 323.676 384.274 324.539 384.274H358.76C359.622 384.274 360.324 383.572 360.324 382.709C360.324 381.846 359.622 381.145 358.76 381.145Z" fill="#9563FF"/>
<path d="M412.324 382.709C412.324 381.846 411.622 381.145 410.76 381.145H376.539C375.676 381.145 374.974 381.846 374.974 382.709C374.974 383.572 375.676 384.274 376.539 384.274H410.76C411.622 384.274 412.324 383.572 412.324 382.709Z" fill="#9563FF"/>
<path d="M286.76 350.381C287.622 350.381 288.324 349.679 288.324 348.816C288.324 347.954 287.622 347.252 286.76 347.252H252.539C251.676 347.252 250.974 347.954 250.974 348.816C250.974 349.679 251.676 350.381 252.539 350.381H286.76Z" fill="#9563FF"/>
<path d="M387.539 349.744H421.76C422.622 349.744 423.324 349.042 423.324 348.18C423.324 347.317 422.622 346.615 421.76 346.615H387.539C386.676 346.615 385.974 347.317 385.974 348.18C385.974 349.042 386.676 349.744 387.539 349.744Z" fill="#9563FF"/>
<path d="M301.176 350.074H372.123C372.986 350.074 373.687 349.372 373.687 348.51C373.687 347.647 372.986 346.945 372.123 346.945H301.176C300.313 346.945 299.611 347.647 299.611 348.51C299.611 349.372 300.313 350.074 301.176 350.074Z" fill="#9563FF"/>
<path d="M329.09 396.688H294.87C294.007 396.688 293.305 397.389 293.305 398.252C293.305 399.115 294.007 399.817 294.87 399.817H329.09C329.953 399.817 330.655 399.115 330.655 398.252C330.655 397.389 329.953 396.688 329.09 396.688Z" fill="#9563FF"/>
<path d="M439.611 316.199V422.199C439.611 431.573 431.985 439.199 422.611 439.199H316.611C307.237 439.199 299.611 431.573 299.611 422.199V316.199C299.611 306.825 307.237 299.199 316.611 299.199H422.611C431.985 299.199 439.611 306.825 439.611 316.199Z" fill="white"/>
<path d="M439.611 316.199V422.199C439.611 431.573 431.985 439.199 422.611 439.199H316.611C307.237 439.199 299.611 431.573 299.611 422.199V316.199C299.611 306.825 307.237 299.199 316.611 299.199H422.611C431.985 299.199 439.611 306.825 439.611 316.199ZM416.035 437.199C427.951 437.199 437.611 427.539 437.611 415.623V368.758C437.611 331.446 407.364 301.199 370.052 301.199H316.611C308.327 301.199 301.611 307.915 301.611 316.199V407.41C301.611 423.862 314.948 437.199 331.401 437.199L416.035 437.199Z" fill="#3F3D56"/>
<path d="M383.722 342.492H349.501C348.638 342.492 347.936 341.79 347.936 340.928C347.936 340.065 348.638 339.363 349.501 339.363H383.722C384.584 339.363 385.286 340.065 385.286 340.928C385.286 341.79 384.584 342.492 383.722 342.492Z" fill="#9563FF"/>
<path d="M383.722 375.856H349.501C348.638 375.856 347.936 375.154 347.936 374.291C347.936 373.428 348.638 372.727 349.501 372.727H383.722C384.584 372.727 385.286 373.428 385.286 374.291C385.286 375.154 384.584 375.856 383.722 375.856Z" fill="#9563FF"/>
<path d="M366.722 421.856H332.501C331.638 421.856 330.936 421.154 330.936 420.291C330.936 419.428 331.638 418.727 332.501 418.727H366.722C367.584 418.727 368.286 419.428 368.286 420.291C368.286 421.154 367.584 421.856 366.722 421.856Z" fill="#9563FF"/>
<path d="M402.085 359.184H331.138C330.275 359.184 329.573 358.482 329.573 357.619C329.573 356.756 330.275 356.055 331.138 356.055H402.085C402.948 356.055 403.649 356.756 403.649 357.619C403.649 358.482 402.948 359.184 402.085 359.184Z" fill="#9563FF"/>
<path d="M419.667 257.461C419.667 224.394 391.718 206.204 359.793 197.588C318.862 186.542 288.885 208.894 299.92 257.461C302.421 268.469 308.402 281.325 315.806 292.321H374.56C394.186 279.544 419.667 283.127 419.667 257.461Z" fill="#9563FF"/>
<path d="M358.914 319.971C362.256 313.6 366.494 309.003 371.162 305.504H316.132C330.296 325.736 349.079 338.72 358.914 319.971Z" fill="#9563FF"/>
<path d="M352.564 222.062C356.097 222.062 358.961 224.926 358.961 228.459V241.252H346.167V228.459C346.167 224.926 349.031 222.062 352.564 222.062ZM362.159 241.252V228.458C362.159 223.159 357.863 218.863 352.564 218.863C347.265 218.863 342.969 223.159 342.969 228.458V241.252C339.436 241.252 336.572 244.116 336.572 247.649V263.641C336.572 267.174 339.436 270.038 342.969 270.038H362.159C365.692 270.038 368.556 267.174 368.556 263.641V247.649C368.556 244.116 365.692 241.252 362.159 241.252ZM342.969 244.45H362.159C363.926 244.45 365.358 245.882 365.358 247.649V263.641C365.358 265.407 363.926 266.839 362.159 266.839H342.969C341.203 266.839 339.771 265.407 339.771 263.641V247.649C339.771 245.882 341.203 244.45 342.969 244.45Z" fill="white"/>
<path d="M261.15 296.543C260.379 302.983 263.076 308.602 267.174 309.093C271.273 309.583 275.22 304.761 275.991 298.32C276.329 295.501 276.002 292.84 275.184 290.697L278.11 263.367L265.255 262.268L263.735 289.326C262.434 291.215 261.488 293.724 261.15 296.543Z" fill="#FFB6B6"/>
<path d="M264.234 133.499C264.234 133.499 278.234 129.499 281.234 135.499C284.234 141.499 291.234 220.499 291.234 220.499L277.734 283.559L262.234 279.499L270.234 215.499L259.234 167.499L264.234 133.499Z" fill="#E6E6E6"/>
<path d="M58.5 325.34C90.8086 325.34 117 299.148 117 266.84C117 234.531 90.8086 208.34 58.5 208.34C26.1913 208.34 0 234.531 0 266.84C0 299.148 26.1913 325.34 58.5 325.34Z" fill="#9563FF"/>
<path d="M58.5 240.651C62.6325 240.651 65.9825 244.002 65.9825 248.134V263.099H51.0174V248.134C51.0174 244.002 54.3675 240.651 58.5 240.651ZM69.7238 263.099V248.134C69.7238 241.935 64.6987 236.91 58.5 236.91C52.3012 236.91 47.2761 241.935 47.2761 248.134V263.099C43.1436 263.099 39.7936 266.449 39.7936 270.582V289.288C39.7936 293.421 43.1436 296.771 47.2761 296.771H69.7238C73.8563 296.771 77.2064 293.421 77.2064 289.288V270.582C77.2064 266.449 73.8563 263.099 69.7238 263.099ZM47.2762 266.84H69.7238C71.7901 266.84 73.4651 268.515 73.4651 270.582V289.288C73.4651 291.354 71.7901 293.029 69.7238 293.029H47.2762C45.2099 293.029 43.5349 291.354 43.5349 289.288V270.582C43.5349 268.515 45.2099 266.84 47.2762 266.84Z" fill="white"/>
</g>
<defs>
<clipPath id="clip0_2935_336">
<rect width="564.984" height="512.296" fill="white"/>
</clipPath>
</defs>
</svg>
