<svg width="817" height="621" viewBox="0 0 817 621" fill="none" xmlns="http://www.w3.org/2000/svg">
<g clip-path="url(#clip0_2935_393)">
<path d="M326.609 128.781H323.631V47.2108C323.631 41.011 322.41 34.8719 320.037 29.144C317.665 23.4161 314.187 18.2117 309.803 13.8277C305.419 9.4438 300.215 5.96628 294.487 3.59372C288.759 1.22115 282.62 5.25296e-06 276.42 0H103.602C91.0812 -2.38694e-05 79.073 4.97392 70.2193 13.8276C61.3655 22.6813 56.3915 34.6895 56.3915 47.2106V494.712C56.3915 500.912 57.6126 507.051 59.9852 512.779C62.3578 518.507 65.8353 523.711 70.2192 528.095C74.6031 532.479 79.8076 535.957 85.5354 538.329C91.2633 540.702 97.4024 541.923 103.602 541.923H276.42C288.941 541.923 300.949 536.949 309.803 528.095C318.657 519.242 323.631 507.233 323.631 494.712V186.844H326.609V128.781Z" fill="#3F3D56"/>
<path d="M278.325 12.2832H255.767C256.804 14.8266 257.2 17.5861 256.92 20.3185C256.639 23.051 255.691 25.6726 254.159 27.9525C252.627 30.2323 250.558 32.1003 248.134 33.392C245.71 34.6837 243.005 35.3594 240.258 35.3596H141.253C138.506 35.3594 135.802 34.6837 133.377 33.392C130.953 32.1003 128.884 30.2323 127.352 27.9525C125.82 25.6727 124.872 23.051 124.591 20.3186C124.311 17.5861 124.707 14.8266 125.745 12.2832H104.675C100.045 12.2832 95.4603 13.1951 91.1828 14.9669C86.9053 16.7387 83.0187 19.3357 79.7448 22.6096C76.4709 25.8834 73.874 29.7701 72.1022 34.0476C70.3304 38.3251 69.4184 42.9097 69.4184 47.5396V494.384C69.4184 499.014 70.3304 503.599 72.1022 507.876C73.874 512.154 76.4709 516.041 79.7448 519.315C83.0186 522.588 86.9053 525.185 91.1828 526.957C95.4603 528.729 100.045 529.641 104.675 529.641H278.325C282.955 529.641 287.54 528.729 291.817 526.957C296.095 525.185 299.981 522.588 303.255 519.315C306.529 516.041 309.126 512.154 310.898 507.877C312.67 503.599 313.581 499.014 313.581 494.384V47.5396C313.581 42.9097 312.67 38.3251 310.898 34.0476C309.126 29.7701 306.529 25.8834 303.255 22.6096C299.981 19.3357 296.095 16.7387 291.817 14.9669C287.54 13.1951 282.955 12.2832 278.325 12.2832Z" fill="white"/>
<path d="M382 542H1C0.734784 542 0.480429 541.895 0.292892 541.707C0.105356 541.52 0 541.265 0 541C0 540.735 0.105356 540.48 0.292892 540.293C0.480429 540.105 0.734784 540 1 540H382C382.265 540 382.52 540.105 382.707 540.293C382.895 540.48 383 540.735 383 541C383 541.265 382.895 541.52 382.707 541.707C382.52 541.895 382.265 542 382 542Z" fill="#CBCBCB"/>
<path d="M191.5 345.68C238.138 345.68 275.946 307.872 275.946 261.233C275.946 214.595 238.138 176.787 191.5 176.787C144.862 176.787 107.054 214.595 107.054 261.233C107.054 307.872 144.862 345.68 191.5 345.68Z" fill="#9563FF"/>
<path d="M183.132 293.448C181.232 293.451 179.383 292.837 177.863 291.697L177.769 291.626L157.923 276.445C157.003 275.74 156.232 274.861 155.652 273.858C155.073 272.856 154.697 271.749 154.545 270.6C154.393 269.452 154.469 268.285 154.769 267.166C155.068 266.048 155.585 264.999 156.289 264.08C156.994 263.16 157.873 262.389 158.875 261.81C159.878 261.23 160.985 260.854 162.134 260.702C163.282 260.55 164.449 260.626 165.567 260.926C166.686 261.225 167.735 261.742 168.654 262.446L181.509 272.304L211.885 232.675C212.59 231.756 213.468 230.985 214.47 230.406C215.473 229.826 216.579 229.45 217.727 229.299C218.875 229.147 220.041 229.223 221.16 229.522C222.278 229.821 223.326 230.338 224.245 231.042L224.248 231.044L224.059 231.306L224.253 231.044C226.106 232.469 227.319 234.57 227.625 236.888C227.931 239.206 227.304 241.55 225.884 243.407L190.155 289.998C189.328 291.072 188.265 291.94 187.049 292.537C185.832 293.133 184.494 293.442 183.14 293.438L183.132 293.448Z" fill="white"/>
<path d="M694.245 550.3C695.272 548.639 696.482 547.097 697.851 545.705C698.415 545.119 699.011 544.567 699.625 544.031C703.359 540.707 707.91 538.438 712.811 537.457C717.713 536.476 722.787 536.818 727.512 538.448C732.238 540.078 736.444 542.938 739.698 546.732C742.952 550.526 745.136 555.119 746.027 560.038C750.151 544.786 739.415 529.762 728.621 518.222C717.821 506.686 705.478 494.031 705.54 478.224C705.57 469.428 709.873 461.581 716.369 455.764C716.569 455.587 716.77 455.411 716.974 455.241C724.826 448.511 734.928 444.991 745.262 445.383C764.461 446.412 781.225 459.315 792.867 474.621C811.606 499.248 819.817 533.817 806.698 561.852C795.159 586.508 770.55 601.15 745.433 612.921C741.926 614.565 738.426 616.159 734.933 617.704C734.91 617.71 734.884 617.727 734.861 617.733C734.693 617.807 734.525 617.881 734.367 617.957C733.646 618.275 732.925 618.593 732.21 618.907L732.541 619.123L733.574 619.792C733.216 619.575 732.862 619.365 732.504 619.148C732.397 619.082 732.285 619.021 732.179 618.955C719.843 611.553 707.335 603.723 698.813 592.167C689.975 580.169 686.421 562.984 694.245 550.3Z" fill="#F1F1F1"/>
<path d="M776.548 522.436C779.279 528.65 781.09 535.229 781.923 541.966C782.579 547.973 782.332 554.044 781.192 559.978C778.743 572.173 773.4 583.601 765.615 593.301C759.741 600.665 752.96 607.257 745.433 612.921C741.926 614.565 738.426 616.159 734.933 617.704C734.91 617.71 734.884 617.726 734.861 617.733C734.693 617.806 734.525 617.88 734.367 617.957C733.646 618.275 732.925 618.593 732.211 618.907L732.542 619.123L733.574 619.792C733.216 619.575 732.862 619.365 732.504 619.148C732.398 619.082 732.285 619.021 732.179 618.955C734.893 609.459 735.293 599.45 733.343 589.768C731.393 580.086 727.15 571.013 720.971 563.308C714.759 555.7 706.837 549.669 697.851 545.704C698.415 545.119 699.011 544.567 699.625 544.03C703.086 545.62 706.4 547.512 709.528 549.685C720.716 557.418 729.116 568.547 733.487 581.425C737.389 593.109 737.876 605.663 734.892 617.614C735.511 617.209 736.132 616.793 736.737 616.38C748.229 608.63 758.82 599.323 766.798 587.909C773.678 578.263 778.081 567.073 779.619 555.325C781.148 542.491 777.937 529.871 772.207 518.419C765.88 506.168 757.908 494.84 748.511 484.749C739.073 474.38 728.402 465.204 716.735 457.427C716.472 457.25 716.288 456.978 716.219 456.669C716.151 456.359 716.205 456.035 716.369 455.764C716.494 455.517 716.711 455.329 716.974 455.241C717.108 455.207 717.247 455.204 717.382 455.231C717.517 455.258 717.644 455.316 717.754 455.399C719.194 456.36 720.622 457.33 722.033 458.328C733.782 466.647 744.452 476.394 753.798 487.344C762.829 497.899 771.048 509.626 776.548 522.436Z" fill="white"/>
<path d="M525.042 39.2099C534.946 39.2099 542.976 31.1806 542.976 21.2759C542.976 11.3712 534.946 3.3418 525.042 3.3418C515.137 3.3418 507.108 11.3712 507.108 21.2759C507.108 31.1806 515.137 39.2099 525.042 39.2099Z" fill="#F1F1F1"/>
<path d="M748.042 279.21C754.08 279.21 758.976 274.315 758.976 268.276C758.976 262.237 754.08 257.342 748.042 257.342C742.003 257.342 737.108 262.237 737.108 268.276C737.108 274.315 742.003 279.21 748.042 279.21Z" fill="#F1F1F1"/>
<path d="M428.042 309.21C434.08 309.21 438.976 304.315 438.976 298.276C438.976 292.237 434.08 287.342 428.042 287.342C422.003 287.342 417.108 292.237 417.108 298.276C417.108 304.315 422.003 309.21 428.042 309.21Z" fill="#F1F1F1"/>
<path d="M434.215 621H815.215C815.481 621 815.735 620.895 815.922 620.707C816.11 620.52 816.215 620.265 816.215 620C816.215 619.735 816.11 619.48 815.922 619.293C815.735 619.105 815.481 619 815.215 619H434.215C433.95 619 433.696 619.105 433.508 619.293C433.321 619.48 433.215 619.735 433.215 620C433.215 620.265 433.321 620.52 433.508 620.707C433.696 620.895 433.95 621 434.215 621Z" fill="#CBCBCB"/>
<path d="M773.17 96.6351C773.67 93.0832 772.85 89.4712 770.865 86.4835C768.88 83.4958 765.868 81.34 762.4 80.4246C758.932 79.5092 755.248 79.8979 752.047 81.5169C748.847 83.1359 746.351 85.8727 745.033 89.2089L714.116 124.653L723.188 149.99L754.281 108.575C756.309 109.225 758.456 109.422 760.57 109.152C762.683 108.883 764.712 108.153 766.513 107.015C768.313 105.877 769.843 104.357 770.993 102.564C772.143 100.77 772.886 98.7467 773.17 96.6351Z" fill="#FFB7B7"/>
<path d="M645.013 234.549L747.642 125.02L733.799 103.012L605.076 211.876L645.013 234.549Z" fill="#3F3D56"/>
<path d="M622.108 168C641.99 168 658.108 151.882 658.108 132C658.108 112.118 641.99 96 622.108 96C602.225 96 586.108 112.118 586.108 132C586.108 151.882 602.225 168 622.108 168Z" fill="#362E45"/>
<path d="M625.001 111.663C632.748 103.808 642.122 97.7458 652.465 93.9041C659.103 91.4447 666.329 89.9252 673.27 91.3219C680.21 92.7186 686.774 97.52 688.71 104.33C690.293 109.898 688.658 115.893 686.201 121.135C683.744 126.377 680.464 131.238 678.477 136.675C676.449 142.223 675.839 148.19 676.703 154.033C677.566 159.877 679.875 165.412 683.42 170.136C686.966 174.861 691.635 178.626 697.004 181.088C702.373 183.551 708.272 184.633 714.166 184.237C707.346 185.152 701.06 188.356 694.395 190.062C687.729 191.768 679.862 191.652 674.909 186.877C669.668 181.825 669.563 173.61 669.816 166.334C670.193 155.52 670.57 144.705 670.946 133.89C671.138 128.374 671.302 122.682 669.313 117.534C667.324 112.386 662.597 107.878 657.079 107.925C652.896 107.961 649.194 110.494 645.84 112.993C642.486 115.492 638.936 118.158 634.769 118.53C630.603 118.901 625.846 115.818 626.158 111.647L625.001 111.663Z" fill="#362E45"/>
<path d="M485.377 373.722C481.921 374.682 478.233 374.341 475.011 372.764C471.79 371.186 469.259 368.482 467.898 365.163C466.538 361.844 466.442 358.141 467.629 354.756C468.815 351.372 471.203 348.54 474.338 346.797L505.439 311.514L531.743 317.197L494.746 353.435C495.656 355.361 496.132 357.464 496.141 359.595C496.149 361.725 495.691 363.832 494.798 365.766C493.905 367.7 492.598 369.415 490.971 370.789C489.343 372.164 487.434 373.165 485.377 373.722Z" fill="#FFB7B7"/>
<path d="M587.698 247.405L510.183 344.705L486.555 333.857L577.665 192.012L587.698 247.405Z" fill="#3F3D56"/>
<path d="M525.848 541.212L507.374 540.922L509.596 603.888H525.845L525.848 541.212Z" fill="#FFB7B7"/>
<path d="M529.99 598.581L497.989 598.58H497.988C492.579 598.58 487.392 600.729 483.568 604.553C479.743 608.378 477.594 613.565 477.594 618.973V619.636L529.989 619.638L529.99 598.581Z" fill="#362E45"/>
<path d="M648.165 524.512L627.984 537.468L668.352 586.033L682.026 577.254L648.165 524.512Z" fill="#FFB7B7"/>
<path d="M682.648 570.549L655.718 587.838L655.717 587.838C651.166 590.761 647.962 595.371 646.81 600.656C645.658 605.94 646.653 611.466 649.575 616.017L649.933 616.575L694.023 588.268L682.648 570.549Z" fill="#362E45"/>
<path d="M655.355 332.24C655.355 332.24 610.515 183.312 596.105 181.3C581.695 179.287 558.477 219.513 558.477 219.513C528.374 257.921 497.333 382.334 497.333 382.334C497.333 382.334 549.079 385.572 586.906 405.697C624.733 425.822 669.374 404.678 669.374 404.678L655.355 332.24Z" fill="#3F3D56"/>
<path opacity="0.1" d="M655.355 332.241C655.355 332.241 610.515 183.313 596.105 181.301C581.695 179.288 564.374 219.922 564.374 219.922C549.374 281.922 497.333 382.335 497.333 382.335C497.333 382.335 549.079 385.573 586.906 405.698C624.733 425.824 669.374 404.679 669.374 404.679L655.355 332.241Z" fill="black"/>
<path d="M618.567 287.683V362.518L627.374 470.922L671.374 552.922L650.374 567.922L590.374 489.922L566.643 412.473L529.374 583.922L501.374 581.922L520.82 344.211L557.721 277.301L618.567 287.683Z" fill="#362E45"/>
<path d="M573.358 215.299C559.358 229.299 572.358 244.299 572.358 244.299L556.358 280.299L619.358 297.299L641.374 198.921L626.374 182.921C596.374 181.921 596.358 181.299 596.358 181.299C591.101 186.443 573.358 215.299 573.358 215.299Z" fill="#9563FF"/>
<path d="M643.911 188.729C641.05 186.617 637.798 185.094 634.343 184.247C630.889 183.401 627.301 183.248 623.788 183.798C620.274 184.348 616.904 185.59 613.874 187.451C610.844 189.313 608.213 191.757 606.134 194.642C590.296 216.694 575.651 252.303 595.829 296.714C628.228 368.023 656.422 404.528 667.884 404.524C668.384 404.529 668.882 404.45 669.357 404.293C676.412 401.899 686.613 389.961 688.46 379.44C689.121 375.675 688.964 370.43 684.46 366.828C671.525 356.482 648.302 324.267 641.058 281.864C637.055 258.435 644.819 237.092 652.036 223.314C655.085 217.614 655.977 211.005 654.548 204.7C653.12 198.395 649.467 192.816 644.259 188.985L643.911 188.729Z" fill="#3F3D56"/>
<path d="M623.959 164.464C636.801 157.444 641.521 141.343 634.501 128.5C627.481 115.658 611.379 110.939 598.537 117.959C585.695 124.979 580.975 141.081 587.995 153.923C595.016 166.765 611.117 171.484 623.959 164.464Z" fill="#FFB7B7"/>
<path d="M573.98 139.208H612.245L612.638 133.714L614.6 139.208H620.492L621.269 128.319L625.158 139.208H636.559V138.668C636.55 131.088 633.535 123.82 628.175 118.46C622.815 113.1 615.547 110.085 607.967 110.076H602.572C594.991 110.085 587.724 113.1 582.364 118.46C577.003 123.82 573.988 131.088 573.98 138.668V139.208Z" fill="#362E45"/>
<path d="M630.778 158.954L647.108 153.656V114H616.263L617.027 114.762C627.652 125.373 639.468 163.019 630.778 158.954Z" fill="#362E45"/>
</g>
<defs>
<clipPath id="clip0_2935_393">
<rect width="816.215" height="621" fill="white"/>
</clipPath>
</defs>
</svg>
